<svg width="22" height="22" viewBox="0 0 22 22" fill="none" xmlns="http://www.w3.org/2000/svg">
<path d="M18.15 7.33817C18.2776 7.33817 18.3953 7.38217 18.4888 7.45587L18.5625 7.52517L18.5812 7.54717C19.2202 8.33923 19.627 9.29309 19.7562 10.3026C19.8854 11.3121 19.732 12.3376 19.313 13.2651C18.894 14.1926 18.2259 14.9856 17.383 15.556C16.5401 16.1263 15.5554 16.4516 14.5387 16.4957L14.3 16.5001H7.69996C7.58879 16.5001 7.47764 16.4968 7.36666 16.4902L9.18936 18.3107C9.2803 18.4018 9.33639 18.522 9.34785 18.6502C9.3593 18.7785 9.32541 18.9067 9.25206 19.0125L9.18936 19.0895C9.09822 19.1804 8.97806 19.2365 8.84982 19.248C8.72158 19.2594 8.59338 19.2255 8.48756 19.1522L8.41056 19.0895L5.66056 16.3395C5.56962 16.2483 5.51353 16.1282 5.50208 15.9999C5.49062 15.8717 5.52452 15.7435 5.59786 15.6377L5.66056 15.5607L8.41056 12.8107C8.50757 12.7132 8.63756 12.6557 8.77491 12.6493C8.91226 12.6429 9.04701 12.6883 9.1526 12.7763C9.2582 12.8644 9.32698 12.9888 9.34539 13.1251C9.3638 13.2613 9.3305 13.3995 9.25206 13.5125L9.18936 13.5895L7.38866 15.3891L7.54266 15.3979L7.69996 15.4001H14.3C15.1309 15.4001 15.9448 15.1649 16.6476 14.7217C17.3504 14.2784 17.9134 13.6452 18.2713 12.8953C18.6292 12.1454 18.7674 11.3095 18.6701 10.4844C18.5727 9.65917 18.2436 8.87843 17.721 8.23247C17.6564 8.1516 17.6159 8.05414 17.6043 7.95131C17.5926 7.84848 17.6102 7.74444 17.655 7.65115C17.6998 7.55786 17.77 7.4791 17.8576 7.42393C17.9451 7.36876 18.0465 7.33942 18.15 7.33927V7.33817ZM12.8106 2.91067C12.9017 2.81973 13.0219 2.76364 13.1501 2.75218C13.2783 2.74073 13.4065 2.77462 13.5124 2.84797L13.5894 2.91067L16.3394 5.66067L16.4021 5.73767C16.4654 5.82952 16.4994 5.93847 16.4994 6.05007C16.4994 6.16166 16.4654 6.27062 16.4021 6.36247L16.3394 6.43947L13.5894 9.18947L13.5124 9.25217C13.4205 9.31556 13.3116 9.3495 13.2 9.3495C13.0884 9.3495 12.9794 9.31556 12.8876 9.25217L12.8106 9.18947L12.7479 9.11247C12.6845 9.02062 12.6505 8.91166 12.6505 8.80007C12.6505 8.68847 12.6845 8.57952 12.7479 8.48767L12.8106 8.41067L14.6113 6.61107L14.4573 6.60227L14.3 6.60007H7.69996C6.86834 6.60002 6.05373 6.83565 5.35055 7.27965C4.64737 7.72365 4.08442 8.35784 3.72694 9.10872C3.36946 9.85959 3.2321 10.6964 3.33078 11.5221C3.42945 12.3479 3.76012 13.1288 4.28446 13.7743C4.37213 13.8911 4.40979 14.038 4.38916 14.1826C4.36853 14.3272 4.2913 14.4577 4.17446 14.5454C4.11661 14.5888 4.05077 14.6204 3.98071 14.6383C3.91065 14.6563 3.83773 14.6603 3.76613 14.6501C3.62152 14.6294 3.49103 14.5522 3.40336 14.4354C2.76869 13.6421 2.36614 12.6885 2.24033 11.6805C2.11453 10.6724 2.2704 9.64912 2.69065 8.7242C3.1109 7.79928 3.77911 7.00883 4.62119 6.44051C5.46326 5.87219 6.44629 5.5482 7.46126 5.50447L7.69996 5.50007H14.3C14.4122 5.50007 14.5233 5.50337 14.6333 5.50997L12.8106 3.68947L12.7479 3.61247C12.6745 3.50665 12.6406 3.37845 12.6521 3.25021C12.6635 3.12197 12.7196 3.00181 12.8106 2.91067Z" fill="#C4C4C4"/>
</svg>
