<svg width="24" height="24" viewBox="0 0 24 24" fill="none" xmlns="http://www.w3.org/2000/svg">
<path d="M16.3395 15.4905C15.876 15.3443 15.2843 14.9633 14.622 14.3003C14.0535 13.7438 13.467 13.0268 12.867 12.2453C12.723 12.4365 12.5798 12.6278 12.4358 12.8228C12.0435 13.3538 11.6423 13.89 11.2335 14.4173C12.6615 16.1498 14.1435 17.8508 16.341 18.1313V20.1563L22.0073 16.8863L16.3403 13.614V15.4905H16.3395ZM6.89401 8.95053C7.46101 9.50553 8.04751 10.2225 8.64901 11.004C8.79451 10.8075 8.94151 10.614 9.08851 10.413C9.48034 9.8809 9.87836 9.35337 10.2825 8.83053C8.75851 6.98253 7.18276 5.15028 4.73551 5.06253H2.11051V7.68753H4.73551C5.22676 7.66728 5.99701 8.05128 6.89401 8.94978V8.95053ZM16.3395 7.75578V9.65778L22.0065 6.38553L16.3395 3.11328V5.09853C14.9115 5.26353 13.7708 6.10953 12.777 7.08153C11.1293 8.71953 9.68926 10.9575 8.26801 12.7365C6.86776 14.5643 5.46301 15.6518 4.73401 15.564H2.10901V18.189H4.73401C6.37276 18.1665 7.64401 17.2395 8.73901 16.1693C10.3845 14.5313 11.826 12.294 13.2465 10.5158C14.4038 9.00303 15.5595 8.01078 16.3395 7.75578Z" fill="#C4C4C4"/>
</svg>
